<svg width="40" height="52" viewBox="0 0 40 52" fill="none" xmlns="http://www.w3.org/2000/svg">
<g clip-path="url(#clip0_2_2791)">
<path d="M38.8556 21.427C38.1227 18.84 37.0725 16.833 35.7051 15.437C34.3383 14.042 32.7336 13.345 30.8902 13.345C29.0278 13.345 27.423 14.042 26.0563 15.438C24.6888 16.833 23.6583 18.84 22.9254 21.427C22.1919 24.015 21.8353 27.125 21.8353 30.701C21.8353 31.893 21.8949 33.027 21.9742 34.103L18.8041 42.505H11.0759V42.04C13.3946 39.685 15.3166 37.417 16.8617 35.208C18.4075 32.998 19.5966 30.788 20.4285 28.608C21.261 26.428 21.6766 24.189 21.6766 21.95C21.6766 20.09 21.3797 18.49 20.7654 17.124C20.1512 15.758 19.299 14.711 18.1498 13.984C17.0203 13.257 15.4753 12.88 13.9492 12.88C12.4237 12.88 10.6407 13.46 9.49085 14.188C8.34169 14.915 7.41085 15.932 6.79593 17.241C6.18237 18.578 5.88475 20.09 5.88475 21.805C5.88475 23.375 6.12203 24.799 6.61831 26.079C7.11322 27.358 7.78712 28.289 8.63864 28.899L12.2651 27.039V26.369C11.3736 26.137 10.6997 25.526 10.2244 24.567C9.74848 23.607 9.51051 22.387 9.51051 20.875C9.51051 19.247 9.8278 17.938 10.482 16.921C11.1356 15.903 12.1858 15.205 13.2753 15.205C14.4644 15.205 15.8908 15.815 16.5647 17.037C17.2386 18.258 17.5749 19.915 17.5749 22.067C17.5749 24.48 17.1003 26.893 16.1688 29.364C15.8706 30.1369 15.5533 30.8934 15.2176 31.632C14.3458 32.213 13.2956 32.533 12.0271 32.533C10.442 32.533 9.09492 31.923 7.96542 30.73C6.83593 29.538 5.94441 27.794 5.33017 25.526C4.71593 23.259 4.41831 20.555 4.41831 17.386C4.41831 14.275 4.71593 11.571 5.33017 9.303C5.94441 7.036 6.79593 5.291 7.94576 4.099C9.07458 2.907 10.4224 2.297 11.9478 2.297C13.3349 2.297 14.4841 2.675 15.3756 3.402C16.2678 4.128 16.981 5.292 17.5356 6.862C18.0902 8.432 18.5661 10.321 18.9424 12.996L20.2305 14.13L19.101 0.900002H18.4868C17.7539 0.900002 17.04 0.842002 16.3268 0.755002C15.6897 0.679973 15.0552 0.563527 14.4251 0.406002C13.9098 0.290002 13.3946 0.203002 12.859 0.116002C12.3196 0.0324853 11.7775 -0.00624242 11.2353 1.80624e-06C8.95729 1.80624e-06 6.95525 0.698002 5.25153 2.122C3.54576 3.547 2.25898 5.553 1.34712 8.17C0.455593 10.757 0 13.839 0 17.357C0 20.904 0.435932 23.985 1.3078 26.602C2.17966 29.219 3.44746 31.225 5.11186 32.62C6.77627 34.016 8.79729 34.714 11.1553 34.714C11.8095 34.714 12.701 34.597 13.8108 34.423C13.4701 35.0347 13.113 35.6262 12.7403 36.196C11.3932 38.289 9.68949 40.586 7.64881 43.116C7.17857 43.7187 6.69609 44.3003 6.20203 44.86V46.663H21.0631L22.4102 37.679C22.5485 38.464 22.7268 39.219 22.9254 39.918C23.6576 42.505 24.6881 44.511 26.0556 45.907C27.4237 47.302 29.0278 48 30.8902 48C32.7329 48 34.3383 47.302 35.7051 45.907C37.0725 44.511 38.1227 42.505 38.8556 39.917C39.5892 37.33 39.9458 34.219 39.9458 30.643C39.9458 27.096 39.5892 24.015 38.8556 21.427ZM35.2298 38.813C34.8339 41.051 34.2786 42.738 33.5458 43.901C32.8122 45.064 31.9207 45.645 30.9105 45.645C29.88 45.645 29.0081 45.064 28.2549 43.901C27.5024 42.738 26.9478 41.051 26.5708 38.813C26.1946 36.574 25.9966 33.87 25.9966 30.673C25.9966 25.788 26.4122 22.038 27.2644 19.508C28.097 16.95 29.3254 15.671 30.9302 15.671C32.4956 15.671 33.7234 16.95 34.5756 19.537C35.4278 22.096 35.8441 25.817 35.8441 30.701C35.8047 33.871 35.6068 36.574 35.2298 38.813Z" fill="black"/>
</g>
<defs>
<clipPath id="clip0_2_2791">
<rect width="40" height="48" fill="white"/>
</clipPath>
</defs>
</svg>
