<svg width="20" height="20" viewBox="0 0 20 20" fill="none" xmlns="http://www.w3.org/2000/svg">
<path fill-rule="evenodd" clip-rule="evenodd" d="M0.625 1.375C0.492392 1.375 0.365215 1.42768 0.271447 1.52145C0.177678 1.61521 0.125 1.74239 0.125 1.875C0.125 2.00761 0.177678 2.13479 0.271447 2.22855C0.365215 2.32232 0.492392 2.375 0.625 2.375H2.035C2.06433 2.37501 2.09272 2.38533 2.1152 2.40416C2.13769 2.42299 2.15284 2.44913 2.158 2.478L2.632 5.081C2.63289 5.08702 2.63389 5.09302 2.635 5.099L3.882 11.956C3.88289 11.962 3.88389 11.968 3.885 11.974L4.245 13.951C4.267 14.075 4.31 14.193 4.37 14.301C4.05438 14.5432 3.81558 14.8716 3.68238 15.2465C3.54919 15.6214 3.52729 16.0268 3.61934 16.4138C3.71138 16.8009 3.91343 17.1531 4.20113 17.4279C4.48882 17.7027 4.84987 17.8884 5.24074 17.9626C5.63161 18.0368 6.0356 17.9964 6.404 17.8461C6.7724 17.6959 7.08947 17.4423 7.31698 17.1159C7.54449 16.7896 7.67272 16.4043 7.68621 16.0067C7.6997 15.6091 7.59787 15.2161 7.393 14.875H13.232C12.9974 15.2654 12.8987 15.7224 12.9512 16.1748C13.0038 16.6272 13.2046 17.0495 13.5224 17.3758C13.8402 17.702 14.257 17.9139 14.7079 17.9783C15.1587 18.0427 15.6182 17.956 16.0146 17.7318C16.4111 17.5076 16.7221 17.1584 16.8992 16.7388C17.0763 16.3192 17.1095 15.8528 16.9936 15.4124C16.8778 14.9719 16.6193 14.5822 16.2587 14.3041C15.898 14.026 15.4554 13.8751 15 13.875H5.351C5.32167 13.875 5.29328 13.8647 5.2708 13.8458C5.24831 13.827 5.23316 13.8009 5.228 13.772L4.974 12.375H15.728C15.9915 12.375 16.2467 12.2825 16.449 12.1137C16.6513 11.9448 16.7879 11.7103 16.835 11.451L17.858 5.826C17.8878 5.66384 17.8815 5.4971 17.8396 5.33763C17.7977 5.17816 17.7212 5.02987 17.6156 4.9033C17.5099 4.77673 17.3777 4.67498 17.2282 4.60528C17.0788 4.53558 16.9159 4.49963 16.751 4.5H3.542L3.142 2.299C3.09492 2.03972 2.95831 1.80519 2.756 1.63633C2.55369 1.46746 2.29852 1.37498 2.035 1.375H0.625ZM3.725 5.5L4.792 11.375H15.728C15.7573 11.375 15.7857 11.3647 15.8082 11.3458C15.8307 11.327 15.8458 11.3009 15.851 11.272L16.874 5.647C16.879 5.61992 16.8748 5.59195 16.8621 5.56751C16.8494 5.54307 16.829 5.52354 16.804 5.512C16.7874 5.50416 16.7693 5.50006 16.751 5.5H3.724H3.725ZM13.938 15.938C13.9336 15.7957 13.9579 15.654 14.0093 15.5213C14.0608 15.3886 14.1383 15.2675 14.2374 15.1654C14.3365 15.0632 14.4551 14.9819 14.5862 14.9265C14.7173 14.871 14.8582 14.8424 15.0005 14.8424C15.1428 14.8424 15.2837 14.871 15.4148 14.9265C15.5459 14.9819 15.6645 15.0632 15.7636 15.1654C15.8627 15.2675 15.9402 15.3886 15.9917 15.5213C16.0431 15.654 16.0674 15.7957 16.063 15.938C16.0545 16.2142 15.9389 16.4762 15.7405 16.6685C15.5422 16.8608 15.2768 16.9684 15.0005 16.9684C14.7242 16.9684 14.4588 16.8608 14.2605 16.6685C14.0621 16.4762 13.9465 16.2142 13.938 15.938ZM5.625 14.875C5.48273 14.8706 5.34103 14.8949 5.20831 14.9463C5.07558 14.9978 4.95454 15.0753 4.85236 15.1744C4.75018 15.2735 4.66894 15.3921 4.61346 15.5232C4.55799 15.6543 4.5294 15.7952 4.5294 15.9375C4.5294 16.0798 4.55799 16.2207 4.61346 16.3518C4.66894 16.4829 4.75018 16.6015 4.85236 16.7006C4.95454 16.7997 5.07558 16.8772 5.20831 16.9287C5.34103 16.9801 5.48273 17.0044 5.625 17C5.90115 16.9915 6.16315 16.8759 6.35549 16.6775C6.54783 16.4792 6.6554 16.2138 6.6554 15.9375C6.6554 15.6612 6.54783 15.3958 6.35549 15.1975C6.16315 14.9991 5.90115 14.8835 5.625 14.875Z" fill="black"/>
</svg>
